<svg width="35" height="42" viewBox="0 0 35 42" fill="none" xmlns="http://www.w3.org/2000/svg">
<path d="M3.31661 0.953903C2.48522 0.22667 1.22171 0.311103 0.494473 1.14249C-0.23276 1.97388 -0.148326 3.23739 0.683062 3.96462L3.31661 0.953903ZM21.9181 41.1415C22.8471 41.7389 24.0846 41.4701 24.682 40.541L34.418 25.4013C35.0154 24.4723 34.7466 23.2348 33.8175 22.6373C32.8885 22.0399 31.651 22.3087 31.0536 23.2378L22.3994 36.6953L8.94188 28.0411C8.01283 27.4437 6.77536 27.7125 6.17791 28.6415C5.58047 29.5706 5.84928 30.8081 6.77833 31.4055L21.9181 41.1415ZM20.5622 37.6595L21.0454 39.8838L24.9543 39.0347L24.4711 36.8104L20.5622 37.6595ZM0.683062 3.96462C10.7527 12.7727 17.7223 24.5861 20.5622 37.6595L24.4711 36.8104C21.4489 22.8983 14.0322 10.3271 3.31661 0.953903L0.683062 3.96462Z" fill="#12E39C"/>
</svg>
