<svg width="67" height="35" viewBox="0 0 67 35" fill="none" xmlns="http://www.w3.org/2000/svg">
<path d="M1.56651 29.8108C0.515776 30.7066 0.390107 32.2845 1.28583 33.3352C2.18155 34.3859 3.75946 34.5116 4.8102 33.6159L1.56651 29.8108ZM15.202 21.4722L16.8238 23.3747L15.202 21.4722ZM47.8903 19.017L46.0825 17.2901L47.8903 19.017ZM65.5566 3.08207C65.525 1.70172 64.3804 0.608347 63 0.639951L40.5059 1.15494C39.1255 1.18655 38.0322 2.33116 38.0638 3.71151C38.0954 5.09186 39.24 6.18524 40.6203 6.15363L60.6151 5.69586L61.0729 25.6906C61.1045 27.071 62.2491 28.1643 63.6294 28.1327C65.0098 28.1011 66.1032 26.9565 66.0716 25.5762L65.5566 3.08207ZM33.4034 20.5205L31.9888 22.5818L31.9888 22.5818L33.4034 20.5205ZM4.8102 33.6159L16.8238 23.3747L13.5801 19.5697L1.56651 29.8108L4.8102 33.6159ZM49.6981 20.7438L64.865 4.86614L61.2495 1.41245L46.0825 17.2901L49.6981 20.7438ZM31.9888 22.5818C37.544 26.3942 45.0442 25.6158 49.6981 20.7438L46.0825 17.2901C43.1223 20.3891 38.3516 20.8843 34.818 18.4593L31.9888 22.5818ZM16.8238 23.3747C21.1187 19.7135 27.3355 19.3884 31.9888 22.5818L34.818 18.4593C28.3013 13.9871 19.5949 14.4423 13.5801 19.5697L16.8238 23.3747Z" fill="white" fill-opacity="0.8"/>
</svg>
