<svg width="161" height="17" viewBox="0 0 161 17" fill="none" xmlns="http://www.w3.org/2000/svg">
<g clip-path="url(#clip0_893_925)">
<mask id="mask0_893_925" style="mask-type:luminance" maskUnits="userSpaceOnUse" x="0" y="0" width="161" height="17">
<path d="M160.323 0.46875H0.529297V16.7987H160.323V0.46875Z" fill="white"/>
</mask>
<g mask="url(#mask0_893_925)">
<path d="M101.326 13.5198C102.65 14.5578 104.8 14.3884 106.337 13.6414C106.442 13.5853 106.551 13.5374 106.663 13.4981C106.315 14.193 105.972 14.7185 105.582 15.3743C105.49 15.5828 105.366 15.775 105.212 15.9432C105.058 16.0287 104.895 16.0971 104.726 16.1474C103.347 16.5696 101.87 16.5407 100.509 16.0648C97.556 14.966 95.8015 11.4395 97.4909 7.93459C97.999 6.8358 98.9197 6.10181 99.8578 5.42862C100.726 4.81625 101.977 4.06491 103.332 4.06491C104.387 4.02777 105.417 4.38376 106.224 5.06381C106.489 5.30701 107.527 6.5535 107.488 6.91831C107.19 7.34062 106.856 7.73591 106.489 8.09962C105.943 8.30386 105.377 8.44944 104.8 8.53394C103.536 8.83795 102.194 9.18539 101.008 9.59364C100.653 9.68902 100.311 9.82606 99.9879 10.0019C99.6406 10.2668 99.9489 11.0399 99.9879 11.3656C100.13 12.229 100.596 13.0056 101.291 13.5372L101.326 13.5198ZM99.9619 7.66965C99.8785 8.01915 99.9216 8.38692 100.083 8.70765C100.574 8.70765 104.018 7.66965 104.118 7.50462C104.405 7.09637 103.892 6.56651 103.71 6.38411C103.457 6.08938 103.134 5.8638 102.77 5.72856C102.406 5.59333 102.013 5.55288 101.63 5.61105C101.132 5.7174 100.694 6.00942 100.405 6.42755C100.166 6.8023 100.017 7.22754 99.9706 7.66965H99.9619ZM43.8139 6.75328C45.3209 9.40256 44.8736 12.7641 42.8367 14.4796C42.2344 14.9177 41.6016 15.3125 40.9434 15.6609C39.6964 16.5296 38.1757 16.9141 36.6657 16.7424C36.2526 16.6508 35.8596 16.4845 35.5062 16.2516C34.9185 15.9231 34.3769 15.5186 33.895 15.0486C33.6909 14.8444 33.5476 14.5795 33.3261 14.3971C32.7963 14.8879 32.1666 16.0692 31.4934 16.3341C30.7182 16.5395 29.8982 16.497 29.1484 16.2125C27.029 15.5393 27.0073 14.041 27.0073 11.6262C27.0073 11.1919 27.0681 6.97911 27.0681 6.84883C27.0073 6.25817 26.9249 6.27987 26.356 6.21908C26.2363 6.20071 26.1195 6.16713 26.0085 6.11917C26.8615 5.05587 27.7812 4.04773 28.7619 3.10073C29.117 2.70496 29.5264 2.36134 29.9777 2.08011C30.0994 2.85319 29.9777 3.93461 30.2036 4.68597C30.7942 4.68597 31.2416 4.68597 31.8756 4.68597C32.4053 4.74676 32.8353 4.64687 33.1784 4.79019C33.1186 4.87144 33.0704 4.96061 33.0351 5.05512C32.8833 5.40828 32.6926 5.74334 32.4662 6.05403C32.2621 6.17564 30.5901 6.09312 30.1818 6.11484C30.0821 6.98345 30.0603 9.76303 30.0821 10.0236C30.0821 10.0844 29.7563 14.2017 31.6932 14.4058C32.1829 14.4657 32.6798 14.403 33.1393 14.2234C32.4271 12.5513 31.793 9.67617 32.7918 7.82601C33.6865 6.19736 37.4387 3.44383 40.127 3.97369C41.5948 4.26033 43.1669 5.58498 43.8356 6.74458L43.8139 6.75328ZM39.4103 15.3135C43.3189 15.0095 42.0595 5.1854 37.2911 5.55023C35.2717 5.69356 34.8852 9.62839 35.5193 11.6827C35.6914 12.3748 36.0073 13.0229 36.4466 13.5849C36.8858 14.1468 37.4384 14.61 38.0684 14.9443C38.48 15.1761 38.9425 15.3029 39.4147 15.3135H39.4103ZM74.7304 7.54806C75.6249 9.58497 75.2993 12.2777 74.0354 13.7022C73.1985 14.5924 72.203 15.3185 71.0996 15.8433C70.5069 16.185 69.8776 16.4589 69.2236 16.6599C68.5324 16.7526 67.8293 16.6903 67.1652 16.4774C64.8027 15.9085 63.8212 14.358 63.1523 12.0736C62.994 11.6296 62.9247 11.1589 62.9482 10.6881C62.8875 10.6881 62.9482 10.6273 62.9092 10.5665V10.0149C62.9791 9.21111 63.1861 8.42523 63.5215 7.69139C64.1339 6.63167 65.2934 5.83687 66.3357 5.18542C67.0697 4.71636 68.3333 3.98239 69.3322 3.86078C71.0041 3.67837 72.0247 4.51225 72.8976 5.1637C73.7178 5.78222 74.3519 6.61467 74.7304 7.56978V7.54806ZM71.4471 14.2929C72.6892 12.6816 72.3635 9.51547 71.4471 7.75219C71.001 6.97199 70.3348 6.34056 69.5319 5.93678C69.1237 5.75436 68.594 5.36783 67.9207 5.46772C67.0522 5.58931 66.618 6.2408 66.353 6.91397C65.15 9.87161 66.5354 14.3927 69.0629 15.0268C69.4507 15.1551 69.8575 15.2168 70.2659 15.2093C70.8565 15.1094 71.1344 14.6794 71.4471 14.2929ZM86.6469 4.65122C86.7512 4.93787 86.8293 5.08553 86.8293 5.08553C87.624 7.10506 88.7272 9.02037 89.435 11.1659C89.7823 12.2473 90.1471 13.3678 90.4339 14.4492C90.531 14.9755 90.6675 15.4938 90.8421 15.9997C92.2057 16.0388 93.4477 16.0388 94.8592 16.0388C94.7765 15.6913 94.6768 15.3873 94.6159 15.0399C94.5161 14.2234 94.8592 13.4112 95.0241 12.7554C95.6727 10.4499 96.472 8.1895 97.4171 5.98889C97.5995 5.55458 97.9468 5.21583 98.1119 4.78586C97.3258 4.69959 96.5335 4.68651 95.745 4.74676C95.5019 5.56326 95.4411 6.31462 95.1544 7.1702C94.503 9.25055 93.9514 11.3092 93.2001 13.4503C92.8354 12.5817 92.5661 11.6175 92.2839 10.7185C91.6933 8.8423 90.981 7.07031 90.816 4.68597C89.3482 4.68597 88.067 4.72505 86.6382 4.68597L86.6469 4.65122ZM25.2007 4.5687C25.1182 4.5687 23.5288 4.5687 23.3681 4.5687C22.86 4.6078 22.2866 4.6078 21.657 4.65122V4.79455C21.6879 5.21862 21.7431 5.64059 21.8221 6.05837C21.8427 6.41856 21.8427 6.77962 21.8221 7.1398C21.8961 7.84383 21.9091 8.55295 21.8611 9.25923C21.6787 11.3569 22.2476 13.8238 20.415 14.801C19.8027 15.105 18.9253 14.7402 18.5388 14.4753C17.3968 13.6588 17.236 12.5209 17.3142 10.8879C17.3534 10.1973 17.3534 6.36239 17.3142 6.38411C17.3142 5.81517 17.6182 4.97695 17.4358 4.59042C16.9494 4.59042 16.5412 4.6903 16.172 4.73373C15.8119 4.75434 15.4508 4.75434 15.0907 4.73373C14.7168 4.6318 14.3224 4.6318 13.9485 4.73373C13.866 4.73373 13.9485 5.3852 13.9876 5.55023C14.1493 7.55675 14.1972 9.57084 14.1309 11.5828V11.7261C14.0628 12.2824 14.0759 12.8457 14.17 13.3982C14.4957 14.8835 15.7204 15.8651 17.0624 16.3949C18.7733 17.0898 20.5365 15.8868 21.5267 15.2353C21.65 15.1491 21.7885 15.0872 21.9349 15.0529C22.1 15.3178 21.9739 15.8086 22.1781 16.0909C22.239 16.1734 24.7838 16.0909 25.2962 16.0909C25.3962 15.7044 25.153 15.3178 25.0921 14.9096C24.9879 14.1365 24.9706 13.2201 24.8663 12.5035C24.826 11.9469 24.826 11.3881 24.8663 10.8314C24.8663 10.7923 24.8663 9.40689 24.9055 8.89441C24.9662 7.54806 25.0052 6.38845 25.1096 5.12462C25.1444 4.94998 25.1646 4.77275 25.1703 4.59476L25.2007 4.5687ZM152.445 4.3255C151.711 4.36458 150.938 4.42539 150.143 4.44709C150.308 6.67077 149.348 8.79017 148.736 10.5622C148.575 11.0312 148.593 11.6219 148.367 12.0692C148.328 12.1691 148.163 12.2125 148.063 12.2516C147.798 11.7218 147.776 11.0877 147.555 10.5144C147.048 9.08055 146.658 7.60768 146.391 6.1105C146.308 5.64144 146.495 4.78586 146.391 4.46012C146.308 4.27772 145.249 4.42105 145.088 4.46012C145.027 4.46012 143.868 4.49922 143.351 4.46012C143.125 4.89444 143.307 5.84558 143.268 6.2929C143.207 7.55675 142.86 8.51222 142.617 9.61537C142.452 10.3711 142.269 11.0833 142.109 11.8564C142.098 11.9665 142.055 12.0711 141.987 12.158C141.918 12.245 141.827 12.3106 141.722 12.3472C141.361 11.3683 141.062 10.3674 140.828 9.35044C140.563 8.39061 140.237 7.51766 139.994 6.45794C139.883 5.81114 139.835 5.15521 139.851 4.49922C139.614 4.47361 139.376 4.46056 139.138 4.46012C138.039 4.39936 136.937 4.39936 135.838 4.46012C135.955 4.82084 136.12 5.16413 136.329 5.48073C136.883 6.61036 137.373 7.77036 137.796 8.9552C138.287 10.649 138.734 12.1126 139.143 13.9671C139.182 14.1278 139.286 15.4568 139.347 15.7825C140.428 15.7825 141.77 15.7217 142.821 15.7435C142.925 15.2527 142.925 14.7228 142.986 14.3146C143.162 13.204 143.421 12.1079 143.759 11.0355C143.841 10.7098 144.046 9.79344 144.106 9.62839C144.289 9.12025 144.311 9.79344 144.41 10.0366C144.593 10.5057 144.697 11.1572 144.88 11.7305C145.216 12.7254 145.489 13.7409 145.696 14.7706C145.839 15.6696 145.531 15.8911 146.564 15.7912C147.433 15.7087 148.419 15.9736 149.313 15.7522C149.313 12.9813 150.273 10.8618 151.025 8.69897C151.289 7.94326 151.554 6.9878 151.919 6.19301C152.041 5.96717 153.001 4.33851 152.51 4.37761L152.445 4.3255ZM51.5832 4.06056C50.2803 4.22559 49.4855 5.09856 48.4433 5.50681C48.3138 5.23665 48.2583 4.93686 48.2826 4.63819C47.1405 4.699 46.1634 4.63819 45.0647 4.63819C45.1037 5.0725 45.2297 5.59801 45.3078 6.00626C45.475 7.02385 45.5506 8.05441 45.5336 9.08552C45.5336 9.63708 45.3078 13.7543 45.3078 16.0779C46.0201 16.2429 46.8148 16.0171 47.5705 16.0388C48.0047 16.0388 48.5476 16.2038 48.9166 16.0779C48.9166 15.3439 48.7125 14.7098 48.6735 14.1409C48.5729 11.9875 48.5858 9.83034 48.7125 7.67836C48.7372 7.312 48.8481 6.95661 49.0358 6.64114C49.2238 6.32568 49.4836 6.05904 49.794 5.86294C49.9761 5.77271 50.1777 5.72905 50.3809 5.73587C50.584 5.74268 50.7822 5.79977 50.9578 5.90201C51.5007 6.14883 51.9357 6.58391 52.1824 7.12678C52.4082 7.63492 52.3475 8.4297 52.3865 9.10289C52.5299 11.3873 52.5299 14.0583 52.0609 16.0735C52.7415 16.0881 53.4221 16.0533 54.0976 15.9693C54.654 16.0382 55.2173 16.025 55.7697 15.9302C55.4657 14.8705 55.5264 13.9107 55.5047 12.6468C55.4657 10.345 55.014 7.24405 56.5035 6.00192C56.6307 5.86527 56.7955 5.76928 56.9771 5.72601C57.1587 5.68273 57.3491 5.69412 57.5241 5.7587C58.0381 5.91411 58.4751 6.25659 58.7488 6.71853C58.8815 7.01267 58.9834 7.31977 59.0528 7.63492C59.1139 8.29173 59.1341 8.95169 59.1136 9.61101C59.1136 9.67183 59.1136 12.3428 59.1136 13.6067C59.0311 14.4753 58.9921 14.8097 58.9921 14.8097C58.9152 15.2067 58.8673 15.6088 58.8487 16.0127C59.1482 16.0236 59.448 16.0033 59.7434 15.9519C60.6379 15.9519 61.4153 15.9519 62.349 15.9519C62.3908 15.419 62.3498 14.8828 62.2273 14.3624C62.1156 13.4578 62.0779 12.5456 62.1145 11.6349C62.1963 10.5623 62.1963 9.48496 62.1145 8.41233C62.0537 7.82167 62.2144 7.04861 62.032 6.51875C61.8491 6.07186 61.5779 5.6665 61.2347 5.32694C60.8913 4.98739 60.4831 4.72062 60.0343 4.54264C59.3711 4.18317 58.6095 4.04758 57.8629 4.15611C56.6208 4.42103 55.887 5.39823 54.9272 5.9498C54.5624 5.66316 54.3365 5.23753 53.9673 4.95089C53.4159 4.51658 52.4388 3.97369 51.5614 4.08226L51.5832 4.06056ZM156.601 3.81734C155.888 3.81734 154.603 4.55133 153.995 4.93786C153.057 5.52851 152.406 6.08009 152.041 7.20061C151.932 7.50242 151.896 7.82556 151.935 8.14393C151.974 8.46231 152.088 8.767 152.267 9.03339C152.693 9.62409 153.233 10.1233 153.856 10.5014C155.202 11.3179 156.605 11.3179 157.361 12.7858C157.545 13.2368 157.545 13.742 157.361 14.193C156.727 15.5567 153.886 13.7022 153.426 13.155C153.218 12.9256 153.076 12.643 153.018 12.3385C152.955 12.4241 152.887 12.5053 152.814 12.5817C152.488 13.016 151.732 13.5806 151.511 14.0497C151.246 14.6186 152.814 15.6001 153.465 15.8651C155.463 16.6381 157.013 15.5784 158.173 14.7228C159.415 13.8542 161.065 12.5209 159.823 10.5665C159.05 9.34175 157.091 8.82926 155.706 8.20386C155.169 7.98033 154.714 7.59663 154.403 7.10506C154.22 6.69286 154.205 6.22563 154.36 5.80214C154.794 4.76414 156.214 5.31136 156.926 5.74133C157.629 6.14887 158.175 6.78047 158.477 7.53503C158.678 7.32578 158.863 7.10067 159.028 6.86186C159.358 6.44017 159.649 5.98954 159.897 5.5155C159.858 5.33308 159.463 5.00734 159.306 4.90312C158.528 4.24391 157.554 3.85797 156.536 3.80431L156.601 3.81734ZM14.3437 15.8433C14.3437 15.9259 14.3437 16.0084 14.2612 16.0475C13.9068 16.0682 13.5513 16.0478 13.2016 15.9867C12.4157 15.9159 11.625 15.9159 10.8391 15.9867C10.5392 16.0579 10.2295 16.0785 9.92277 16.0475C9.9642 15.6551 9.9845 15.2607 9.98356 14.8662C9.92276 14.3971 9.35386 11.826 9.0238 11.6262C8.69374 11.4264 7.08691 11.5046 6.45721 11.5263C5.89146 11.4799 5.32209 11.5076 4.76352 11.6088C4.06868 11.8738 3.72559 14.5448 3.64308 15.3395C3.60399 15.5654 3.70387 16.0127 3.56057 16.1343H3.52148C2.96994 16.421 2.27944 15.991 1.52379 16.0953C1.35877 16.0953 1.08952 16.2169 0.894089 16.2386C0.825675 16.2373 0.758199 16.2224 0.695577 16.1948C0.632956 16.1672 0.576436 16.1275 0.529297 16.0779C0.833292 15.4438 1.22414 14.8748 1.48471 14.2234C1.99282 12.9812 2.54436 11.5958 2.99166 10.2712C3.25658 9.53719 3.52148 8.49919 3.8081 7.64361C4.28146 6.17308 4.67004 4.67658 4.97198 3.16153C5.12633 2.34457 5.06344 1.5014 4.78958 0.716383C4.97655 0.676159 5.16724 0.655779 5.35848 0.65558C5.9491 0.65558 6.74383 0.738097 7.39525 0.716383C8.03301 0.676006 8.67268 0.676006 9.31042 0.716383C9.65785 3.85644 10.6567 6.19736 11.5513 8.68594C12.2244 10.5622 12.7326 12.3732 13.5273 14.0887C13.8359 14.6619 14.1086 15.2537 14.3437 15.8607V15.8433ZM8.4549 9.62839C8.53741 9.34175 8.06838 8.32547 7.98587 8.06053C7.5516 6.71417 7.35616 5.59367 6.84371 4.35155C6.74383 4.08662 6.84371 3.84341 6.45721 3.84341C6.22336 4.4555 6.0531 5.09004 5.9491 5.737C5.78842 6.5535 5.54088 7.40908 5.35848 8.22558C5.21658 8.75421 5.11497 9.29286 5.05449 9.83686C5.59231 9.81589 6.13095 9.83622 6.66566 9.89767C7.22365 9.90543 7.78169 9.88513 8.33764 9.83686C8.39845 9.77897 8.44716 9.7096 8.48095 9.63275L8.4549 9.62839ZM79.0513 1.96285C78.0959 2.86186 77.1536 3.79562 76.2589 4.77717C75.8876 5.22597 75.4777 5.64158 75.0342 6.0193C75.0734 6.0193 75.0342 6.05837 75.0342 6.11917C75.4425 6.17998 75.7075 6.17998 76.0723 6.24078C76.0723 7.85062 76.0925 9.48073 76.133 11.1311C76.133 11.9476 76.0114 12.7424 76.0723 13.5763C76.2372 15.535 77.4184 16.0605 79.3119 16.3081C79.728 16.4186 80.1672 16.405 80.5756 16.269C81.492 15.8347 81.7178 14.4579 82.8166 14.0497C82.8749 14.6194 82.8618 15.1943 82.7774 15.7608C82.7774 15.7608 82.7774 15.7608 82.7774 15.9432C83.9559 16.0859 85.1472 16.0859 86.3255 15.9432C86.0389 13.8238 85.8913 8.07358 85.8913 8.09528C85.9955 7.27878 85.8913 6.58823 86.0345 5.77173C86.1118 5.39035 86.1395 5.0006 86.1172 4.61212C85.4266 4.52961 84.8533 4.61212 84.1628 4.57303C83.6218 4.51125 83.0754 4.51125 82.5343 4.57303C82.6385 5.24622 82.7991 5.87597 82.8426 6.42755C82.9642 7.69137 82.9469 9.05511 83.0032 10.3016C83.1856 13.459 82.6776 13.8672 82.6776 13.8672C82.1471 14.2477 81.493 14.4151 80.8449 14.3363C80.0111 14.2755 79.5422 14.0106 79.2771 13.4199C78.9515 12.6468 79.1557 11.5437 79.1339 10.6056C79.1339 10.6056 79.1339 10.0366 79.1339 8.28203C79.067 7.58227 79.0947 6.87667 79.2164 6.18433C79.6718 6.08966 80.1369 6.04884 80.6017 6.06273H80.8666C81.3748 6.06273 81.4355 6.02364 81.6223 5.69356C81.8695 5.35929 82.0751 4.99612 82.2346 4.61212C81.6223 4.61212 79.6854 4.79453 79.2381 4.57303C79.1557 4.53395 79.1382 2.3103 79.0557 1.96719L79.0513 1.96285ZM84.063 0.924849C83.8623 0.931054 83.665 0.977727 83.483 1.06206C83.3009 1.1464 83.1378 1.26665 83.0032 1.41562C82.8651 1.59936 82.7725 1.81332 82.7333 2.03985C82.694 2.26638 82.7092 2.49901 82.7774 2.71855C82.8383 2.90095 82.8166 3.08337 82.9208 3.22669C83.2683 3.79564 85.3441 3.89986 85.8956 3.43081C86.3299 3.08336 86.3863 1.96285 86.078 1.41128C85.7697 0.859707 84.8143 0.903136 84.0586 0.920508L84.063 0.924849ZM114.775 0.49054C113.798 0.529628 112.604 0.408022 111.922 0.633863C112.165 1.32876 112.491 1.93679 112.695 2.60997C112.809 3.09077 112.863 3.58386 112.856 4.07794C112.856 5.05512 112.856 8.80755 112.795 9.80647C112.731 11.4924 112.569 13.1732 112.308 14.8401C112.226 15.18 112.213 15.533 112.269 15.8781C112.434 15.8781 112.639 15.8781 112.882 15.8781C113.712 16.0042 114.557 16.0042 115.388 15.8781C114.836 13.7587 115.04 11.1007 114.879 8.60342C114.788 7.66755 114.788 6.72498 114.879 5.78911C114.902 5.74574 114.93 5.70498 114.962 5.6675C115.288 5.62842 115.513 6.01495 115.652 6.23645C116.551 7.72612 117.468 9.19409 118.362 10.7011C118.996 11.7391 119.544 12.7597 120.26 14.1018C120.564 14.6707 121.055 15.7131 121.342 15.8737C121.628 16.0345 124.195 15.8347 124.664 15.7912C124.868 14.9226 124.581 13.6935 124.725 12.5513C124.7 12.1028 124.7 11.6534 124.725 11.2049C124.764 8.98128 124.764 7.04861 124.885 4.69031C124.929 3.73483 125.172 1.30704 125.211 1.06383C125.231 0.880518 125.231 0.695569 125.211 0.512257C124.197 0.463577 123.182 0.483891 122.171 0.57306V0.777185C122.19 1.14662 122.238 1.51401 122.314 1.87598C122.479 3.1789 122.64 4.66859 122.701 5.99323C122.74 6.66641 122.662 7.35697 122.74 8.03014C122.74 8.09095 122.74 8.98997 122.701 8.98997C122.701 9.3765 122.701 10.2321 122.74 10.2321C122.779 10.2321 122.679 10.4145 122.657 10.4145C122.614 10.4396 122.564 10.4529 122.514 10.4529C122.464 10.4529 122.414 10.4396 122.371 10.4145C122.106 10.2929 121.658 9.3765 121.454 9.11156C119.987 6.97042 118.784 4.76848 117.42 2.52745C117.216 2.22344 116.604 0.633861 116.421 0.529626C115.874 0.454502 115.321 0.441391 114.771 0.49054H114.775ZM130.001 13.4112C131.326 14.4318 133.475 14.2451 134.995 13.5111C135.108 13.4614 135.224 13.4208 135.343 13.3895C134.974 14.0801 134.631 14.5925 134.24 15.244C134.153 15.4501 134.036 15.642 133.892 15.8129C133.736 15.9099 133.564 15.9789 133.384 16.0171C132.014 16.46 130.536 16.4309 129.185 15.9345C126.227 14.8357 124.455 11.3092 126.145 7.79995C126.717 6.7849 127.527 5.9247 128.507 5.294C129.376 4.68162 130.626 3.94764 131.981 3.94764C133.034 3.89981 134.066 4.24852 134.874 4.92483C135.139 5.16805 136.22 6.41452 136.177 6.80105C135.866 7.2066 135.533 7.59379 135.178 7.96066C134.791 8.20386 133.957 8.28639 133.488 8.39497C132.185 8.69898 130.883 9.06814 129.675 9.47639C129.317 9.56033 128.972 9.69797 128.655 9.88464C128.307 10.1278 128.616 10.9053 128.655 11.231C128.807 12.1013 129.289 12.8793 130.001 13.4025V13.4112ZM128.616 7.53937C128.528 7.89093 128.579 8.26271 128.759 8.57736C129.228 8.57736 132.667 7.53937 132.776 7.37433C133.063 6.9878 132.572 6.43622 132.368 6.25381C132.115 5.95876 131.792 5.73295 131.428 5.59769C131.064 5.46241 130.672 5.42216 130.288 5.48073C129.797 5.60202 129.364 5.8908 129.063 6.29725C128.831 6.67545 128.683 7.09904 128.629 7.53937H128.616Z" fill="white"/>
</g>
</g>
<defs>
<clipPath id="clip0_893_925">
<rect width="159.86" height="16.33" fill="white" transform="translate(0.5 0.46875)"/>
</clipPath>
</defs>
</svg>
