<svg width="891" height="552" viewBox="0 0 891 552" fill="none" xmlns="http://www.w3.org/2000/svg">
<path d="M591 79.1948C591 68.1491 599.954 59.1948 611 59.1948H788C799.046 59.1948 808 68.1491 808 79.1948V481.195H591V79.1948Z" fill="url(#paint0_linear_3009_426)"/>
<path d="M0 482.195L882.038 481.27" stroke="white"/>
<path d="M592 84.1948V481.195H196C196 481.195 270.32 468.873 386.791 376.475C503.262 284.077 592 84.1948 592 84.1948Z" fill="url(#paint1_linear_3009_426)" fill-opacity="0.8"/>
<path d="M593.745 75.9986C593.234 74.7156 591.781 74.0891 590.498 74.5992L569.59 82.9123C568.307 83.4224 567.68 84.876 568.19 86.1591C568.701 87.4421 570.154 88.0686 571.437 87.5585L590.022 80.1691L597.411 98.7539C597.922 100.037 599.375 100.664 600.658 100.153C601.941 99.6432 602.568 98.1896 602.058 96.9066L593.745 75.9986ZM201.999 474.695C201.999 475.598 202.46 476.242 202.856 476.591C203.205 476.899 203.555 477.036 203.716 477.093C204.052 477.21 204.35 477.237 204.469 477.246C204.763 477.27 205.072 477.258 205.329 477.242C205.877 477.206 206.619 477.117 207.518 476.978C209.334 476.697 211.964 476.186 215.328 475.382C222.063 473.772 231.808 470.969 243.963 466.427C268.277 457.341 302.256 441.285 341.089 413.86C418.774 358.998 515.791 258.705 593.717 77.9119L589.126 75.9328C511.548 255.918 415.105 355.468 338.204 409.776C299.744 436.937 266.15 452.798 242.213 461.743C230.243 466.216 220.694 468.958 214.165 470.519C210.898 471.3 208.404 471.781 206.754 472.037C205.92 472.165 205.344 472.23 205.007 472.252C204.821 472.264 204.796 472.257 204.866 472.262C204.873 472.263 205.087 472.275 205.367 472.373C205.5 472.42 205.829 472.546 206.163 472.841C206.545 473.178 206.999 473.808 206.999 474.696L201.999 474.695Z" fill="white"/>
<path d="M99 482.195C99 473.911 105.716 467.195 114 467.195H199H284C292.284 467.195 299 473.911 299 482.195V482.195H99V482.195Z" fill="url(#paint2_linear_3009_426)"/>
<defs>
<linearGradient id="paint0_linear_3009_426" x1="602.316" y1="59.1948" x2="908.106" y2="412.717" gradientUnits="userSpaceOnUse">
<stop offset="0.269418" stop-color="#10E39B"/>
<stop offset="1" stop-color="#2B2B2B"/>
</linearGradient>
<linearGradient id="paint1_linear_3009_426" x1="493.528" y1="316.721" x2="196.531" y2="256.314" gradientUnits="userSpaceOnUse">
<stop stop-color="#F1F1F1" stop-opacity="0.1"/>
<stop offset="1" stop-color="white"/>
</linearGradient>
<linearGradient id="paint2_linear_3009_426" x1="137.93" y1="468.695" x2="138.662" y2="490.638" gradientUnits="userSpaceOnUse">
<stop offset="0.269418" stop-color="#10E39B"/>
<stop offset="1" stop-color="#2B2B2B"/>
</linearGradient>
</defs>
</svg>
