<svg width="161" height="27" viewBox="0 0 161 27" fill="none" xmlns="http://www.w3.org/2000/svg">
<g clip-path="url(#clip0_893_891)">
<mask id="mask0_893_891" style="mask-type:luminance" maskUnits="userSpaceOnUse" x="0" y="0" width="161" height="27">
<path d="M160.37 0.174316H0.724609V26.3129H160.37V0.174316Z" fill="white"/>
</mask>
<g mask="url(#mask0_893_891)">
<path d="M11.0203 0.865341L10.3347 1.55121V3.61961V5.68262H7.59743L4.85478 5.68804L2.79239 7.73482L0.724609 9.78704V13.2542V16.7267L2.79239 18.7951L4.85478 20.8582H8.98495H13.1151L13.8062 20.1669L14.4918 19.481V10.5161V1.55121L13.8008 0.85994L13.1151 0.174072H12.4132H11.7114L11.0203 0.865341ZM9.96754 10.2029L10.3347 10.5647V13.265V15.9652L9.99994 16.3055L9.66521 16.6457H7.61361H5.56203L5.22191 16.3109L4.88177 15.9761V13.2488V10.5215L5.2165 10.1813L5.55124 9.84104H7.57582H9.60043L9.96754 10.2029Z" fill="white"/>
<path d="M86.713 0.865586L86.0273 1.55145V10.5164L86.0326 19.4812L86.7237 20.1401L87.4201 20.8044H91.572H95.7182L97.7862 18.736L99.8484 16.673V13.2436V9.81427L97.77 7.73507L95.6913 5.65588L92.9648 5.63967L90.2383 5.62346V3.58745V1.55145L89.5474 0.860186L88.8617 0.174316H88.133H87.4039L86.713 0.865586ZM95.2972 10.1761L95.6374 10.5109V13.2382V15.9655L95.3027 16.3057L94.968 16.646H92.9434H90.9188L90.5785 16.3111L90.2383 15.9763V13.222V10.4677L90.5461 10.1545L90.854 9.84127H92.9055H94.957L95.2972 10.1761Z" fill="white"/>
<path d="M50.2159 0.91954L49.5303 1.60541V2.30748V3.00954L50.2212 3.70083L50.9068 4.38668H51.6087H52.3106L53.0017 3.69542L53.6874 3.00954V2.30748V1.60541L52.9963 0.91414L52.3106 0.228271H51.6087H50.9068L50.2159 0.91954Z" fill="white"/>
<path d="M156.969 1.88087C156.202 2.08609 155.517 2.63694 155.193 3.3174C154.729 4.30032 154.907 5.46683 155.652 6.27151C156.127 6.78997 156.948 7.14099 157.671 7.14099C158.848 7.14099 159.895 6.40113 160.257 5.32101C160.408 4.87278 160.414 4.10049 160.268 3.63603C159.998 2.77197 159.258 2.08609 158.362 1.87547C157.936 1.77826 157.358 1.77826 156.969 1.88087ZM158.513 2.57754C159.755 3.1824 160.052 4.86196 159.096 5.89347C158.691 6.33631 158.281 6.51452 157.698 6.50914C156.883 6.50914 156.235 6.09868 155.879 5.36962C155.711 5.03479 155.7 4.96999 155.7 4.46774C155.7 3.99248 155.717 3.88986 155.846 3.61444C156.246 2.76656 156.877 2.36692 157.757 2.40472C158.103 2.42092 158.259 2.45333 158.513 2.57754Z" fill="white"/>
<path d="M156.823 3.12834L156.645 3.14993V4.50007V5.84482H156.968H157.292V5.33175V4.8187H157.53C157.859 4.8187 157.972 4.93212 158.118 5.41278L158.242 5.8178L158.61 5.834C158.95 5.85021 158.977 5.83941 158.944 5.753C158.923 5.699 158.869 5.49378 158.82 5.29936C158.728 4.88352 158.577 4.60269 158.421 4.56489C158.323 4.53789 158.329 4.52169 158.485 4.45148C158.977 4.20844 158.966 3.48477 158.464 3.21476C158.329 3.14455 158.14 3.11755 157.643 3.11214C157.287 3.10673 156.914 3.11214 156.823 3.12834ZM157.881 3.63598C158.108 3.71701 158.194 3.91681 158.075 4.09503C157.994 4.22465 157.703 4.33265 157.444 4.33265C157.292 4.33265 157.292 4.32727 157.292 3.99243C157.292 3.8034 157.309 3.6306 157.33 3.61439C157.384 3.55498 157.692 3.57118 157.881 3.63598Z" fill="white"/>
<path d="M20.7817 5.6125L20.1878 5.63409L18.1254 7.69711L16.0576 9.76013V13.1895V16.6188L18.1254 18.6818L20.1878 20.7502H24.3396L28.4912 20.7556L29.1879 20.0643L29.8788 19.3731V18.6818V17.9959L29.1662 17.2939L28.4481 16.5972L24.6689 16.5918H20.8842L20.5657 16.2678L20.2418 15.9383L20.5765 15.6197L20.9059 15.2957H24.7067H28.5022L29.1931 14.6044L29.8788 13.9185V11.8393V9.76013L27.7894 7.67011L25.6947 5.57471L23.5351 5.5855C22.3474 5.59089 21.111 5.60709 20.7817 5.6125ZM25.3276 10.0896L25.6731 10.3974L25.3384 10.7376L24.9982 11.0832H22.9412H20.8842L20.5657 10.7592L20.2472 10.4352L20.5657 10.1111L20.8842 9.78713H22.9359H24.982L25.3276 10.0896Z" fill="white"/>
<path d="M71.3318 6.26064L70.6406 6.9519V13.1895V19.4272L71.3318 20.1184L72.0174 20.8043H72.7191H73.4209L74.1121 20.113L74.7978 19.4272V15.3227V11.2183L75.4779 10.5001L76.1584 9.78718H77.5135H78.8739L79.565 10.4785L80.2507 11.1643V15.2957V19.4272L80.9416 20.1184L81.6273 20.8043H82.3563H83.0851L83.7763 20.113L84.4617 19.4272V14.5937V9.76018L82.3994 7.69719L80.3317 5.63417L76.1746 5.59638L72.0174 5.56396L71.3318 6.26064Z" fill="white"/>
<path d="M132.987 6.26606L132.296 6.97353V13.2003V19.4272L132.987 20.1184L133.673 20.8043H134.402H135.13L135.821 20.113L136.507 19.4272V15.2957V11.1643L137.198 10.4731L137.884 9.78719H139.234H140.583L141.274 10.4785L141.96 11.1643V15.2957V19.4272L142.651 20.1184L143.337 20.8043H144.065H144.794L145.458 20.14L146.117 19.4812V15.3228V11.1643L146.808 10.4731L147.494 9.78719H148.844H150.193L150.884 10.4785L151.57 11.1643V15.2957V19.4272L152.261 20.1184L152.947 20.8043H153.676H154.405L155.095 20.113L155.781 19.4272V14.5937V9.76019L153.692 7.6702L151.597 5.57477H148.871H146.144L145.086 6.63328L144.033 7.68638L143.013 6.64949L141.998 5.6126L137.835 5.58559L133.673 5.55859L132.987 6.26606Z" fill="white"/>
<path d="M36.7084 5.66648L35.5205 5.68269L33.4851 7.72409L31.4443 9.76008V11.8663V13.9725L32.1083 14.626L32.7671 15.2848L36.5733 15.3173L40.374 15.3496L40.7035 15.6737L41.0273 15.9977L40.7035 16.3217L40.385 16.6458H36.6002H32.8212L32.13 17.337L31.4443 18.0229V18.725V19.4271L32.1355 20.1183L32.8212 20.8042H36.9511H41.0813L43.1491 18.7358L45.2116 16.6728V14.5936V12.5144L44.5204 11.8231L43.8347 11.1372H40.0717H36.3088L35.9524 10.8024L35.596 10.473L35.9362 10.1273L36.2709 9.78708H40.0555H43.8347L44.5259 9.10661L45.2116 8.42615V7.71327V7.0058L44.5204 6.31454L43.8347 5.62866L40.8655 5.63948C39.2295 5.65028 37.3616 5.66107 36.7084 5.66648Z" fill="white"/>
<path d="M57.3154 7.75102L55.2529 9.81403V13.2704V16.7267L57.3207 18.7951L59.3832 20.8581H61.818H64.2529L64.5338 21.1497C64.6848 21.3118 64.8089 21.463 64.8089 21.49C64.8089 21.5116 64.6686 21.6682 64.5014 21.841L64.1936 22.1543H60.409H56.6298L55.9386 22.8455L55.2529 23.5314V24.2605V24.9895L55.9169 25.6538L56.5757 26.3127H60.76H64.944L67.0118 24.2443L69.0743 22.1813V15.9976V9.81403L67.0063 7.74563L64.944 5.68262H62.1635H59.3832L57.3154 7.75102ZM64.5228 10.1759L64.863 10.5107V13.238V15.9652L64.5283 16.3055L64.1936 16.6457H62.142H60.0905L59.7772 16.3379L59.4642 16.0301V13.2758V10.5215L59.7989 10.1813L60.1336 9.84104H62.1582H64.1828L64.5228 10.1759Z" fill="white"/>
<path d="M103.477 7.75126L101.414 9.81425V13.276V16.7324L103.46 18.7683L105.507 20.8044H108.325H111.143L113.216 18.7738L115.289 16.7432V13.276V9.81425L113.221 7.74585L111.159 5.68286H108.352H105.544L103.477 7.75126ZM110.711 10.2031L111.078 10.5649V13.2922V16.0195L110.744 16.3597L110.409 16.6999H108.357H106.305L105.966 16.3651L105.625 16.0303V13.276V10.5217L105.96 10.1815L106.295 9.84125H108.319H110.344L110.711 10.2031Z" fill="white"/>
<path d="M118.917 7.75126L116.854 9.81425V13.2814V16.7432L118.917 18.7738L120.974 20.8044H123.787H126.6L128.667 18.7738L130.73 16.7432V13.2814V9.81425L128.662 7.74585L126.6 5.68286H123.792H120.985L118.917 7.75126ZM126.178 10.1761L126.519 10.5109V13.2652V16.0195L126.184 16.3597L125.849 16.6999H123.798H121.746L121.406 16.3651L121.066 16.0303V13.276V10.5217L121.4 10.1815L121.735 9.84125H123.787H125.838L126.178 10.1761Z" fill="white"/>
<path d="M47.463 6.42783L46.7773 7.11371V7.81579V8.51785L47.4682 9.20911L48.1539 9.89499H48.8451H49.5307V14.6907V19.481L50.2216 20.1722L50.9073 20.8581H51.6092H52.311L53.0022 20.1668L53.6879 19.481V13.2973V7.11371L52.9967 6.42245L52.311 5.73657H50.2326H48.1539L47.463 6.42783Z" fill="white"/>
</g>
</g>
<defs>
<clipPath id="clip0_893_891">
<rect width="159.92" height="26.4" fill="white" transform="translate(0.5)"/>
</clipPath>
</defs>
</svg>
