<svg width="160" height="33" viewBox="0 0 160 33" fill="none" xmlns="http://www.w3.org/2000/svg">
<g clip-path="url(#clip0_893_909)">
<mask id="mask0_893_909" style="mask-type:luminance" maskUnits="userSpaceOnUse" x="0" y="0" width="160" height="33">
<path d="M159.658 0.640625H0.5V32.6406H159.658V0.640625Z" fill="white"/>
</mask>
<g mask="url(#mask0_893_909)">
<mask id="mask1_893_909" style="mask-type:luminance" maskUnits="userSpaceOnUse" x="1" y="0" width="159" height="33">
<path fill-rule="evenodd" clip-rule="evenodd" d="M26.0034 0.475098V25.6631C26.0034 28.8961 27.5072 31.6029 32.0185 31.6029H34.7251V27.0164H33.5222C32.4696 27.0164 31.9433 26.2646 31.9433 24.9112V0.475098H25.9283H26.0034ZM137.808 0.475098V31.3022H143.597V0.475098H137.808ZM85.4019 2.20442V8.67058H82.5446V13.0315H85.4019V25.6631C85.4019 28.8961 86.9056 31.6029 91.417 31.6029H93.9734V27.0164H92.8454C91.9434 27.0164 91.417 26.2646 91.417 24.9112V13.0315H94.8755V8.67058H91.417V2.20442H85.4019ZM113.221 20.0992C113.221 28.8209 118.785 32.1292 123.823 32.1292C129.838 32.1292 133.447 28.6706 133.823 24.6104H127.658C126.906 26.3398 125.327 26.8661 123.898 26.8661C120.59 26.8661 119.161 24.6104 118.936 21.6029V19.8736L119.161 17.3924C119.462 14.5352 120.966 12.8811 123.522 12.8811C126.229 12.8811 127.658 14.7608 127.658 17.3924H122.019V21.6029H133.823C133.973 11.9037 130.064 7.91871 123.522 7.91871C117.507 7.91871 113.146 12.2796 113.146 20.0992H113.221ZM36.5296 20.0992C36.5296 28.8209 42.169 32.1292 47.2064 32.1292C53.2214 32.1292 56.8304 28.6706 57.2064 24.6104H51.041C50.2893 26.3398 48.6349 26.8661 47.2064 26.8661C44.199 26.8661 42.4694 24.6104 42.4694 21.6029L42.3194 19.8736L42.4694 17.3924H42.695C43.071 14.5352 44.2742 12.8811 46.8304 12.8811C49.5373 12.8811 51.041 14.7608 51.1914 17.3924H45.5523L45.4019 19.4977L45.5523 21.6029H57.2064C57.3568 11.9037 53.3718 7.91871 46.8304 7.91871C40.8154 7.91871 36.5296 12.2796 36.5296 20.0992ZM1.19141 20.0992C1.19141 28.8209 6.8305 32.1292 11.8681 32.1292C18.0335 32.1292 21.4922 28.6706 21.8681 24.6104H15.7027C15.1764 26.3398 13.447 26.8661 11.9433 26.8661C8.78538 26.8661 7.20644 24.6104 7.20644 21.6029V19.8736L7.35684 17.3924C7.73277 14.5352 9.16132 12.8811 11.4922 12.8811C14.1989 12.8811 15.7027 14.7608 15.8531 17.3924H10.214L10.0636 19.4977L10.214 21.6029H21.8681C22.0185 11.9037 18.1087 7.91871 11.4922 7.91871C5.47713 7.91871 1.19141 12.2796 1.19141 20.0992ZM104.124 12.5052V8.36984H98.4845V31.227H104.5V20.6255C104.5 16.1142 105.928 14.1593 109.537 14.1593H111.342V7.91871H110.59C107.883 7.91871 105.928 8.89615 104.124 12.43V12.5052ZM60.0637 20.2495C60.0637 27.6931 63.6726 32.054 70.2141 32.054C76.2291 32.054 79.8381 27.6931 80.2141 22.9563H74.199C74.0486 25.0616 73.1462 26.9413 70.4394 26.9413C67.1312 26.9413 66.2291 23.9337 66.2291 20.0992C66.2291 14.5352 68.2592 13.0315 70.5898 13.0315C72.9206 13.0315 73.823 14.7608 74.199 16.6405H80.2141C79.4621 10.3999 76.2291 7.91871 70.4394 7.91871C63.6726 7.91871 60.0637 12.8811 60.0637 20.2495ZM152.319 8.44501L145.402 17.7683V19.4977L152.62 31.3022H159.913L151.567 18.3698L159.537 8.44501H152.319Z" fill="white"/>
</mask>
<g mask="url(#mask1_893_909)">
<path fill-rule="evenodd" clip-rule="evenodd" d="M354.273 290.776V-153.209H-192.343V290.776H354.273Z" fill="white"/>
</g>
</g>
</g>
<defs>
<clipPath id="clip0_893_909">
<rect width="159.36" height="32" fill="white" transform="translate(0.5 0.640625)"/>
</clipPath>
</defs>
</svg>
