<svg width="45" height="45" viewBox="0 0 45 45" fill="none" xmlns="http://www.w3.org/2000/svg">
<path d="M6 19C4.89543 19 4 19.8954 4 21V34C4 35.1046 4.89543 36 6 36H34C35.1046 36 36 35.1046 36 34V21C36 19.8954 35.1046 19 34 19H6ZM14 33.5714C12.8954 33.5714 12.0135 32.5963 11.3365 31.7235C11.1323 31.4602 10.8836 31.2153 10.5941 30.9955C10.1777 30.6795 9.69254 30.4275 9.16538 30.2479C8.1198 29.8918 7.2 29.0331 7.2 27.9286V27.0714C7.2 25.9669 8.1198 25.1082 9.16538 24.7521C9.69254 24.5725 10.1777 24.3205 10.5941 24.0045C10.8836 23.7847 11.1323 23.5398 11.3365 23.2765C12.0135 22.4037 12.8954 21.4286 14 21.4286H26C27.1046 21.4286 27.9865 22.4037 28.6635 23.2765C28.8677 23.5398 29.1164 23.7847 29.4059 24.0045C29.8223 24.3205 30.3075 24.5725 30.8346 24.7521C31.8802 25.1082 32.8 25.9669 32.8 27.0714V27.9286C32.8 29.0331 31.8802 29.8918 30.8346 30.2479C30.3075 30.4275 29.8223 30.6795 29.4059 30.9955C29.1164 31.2153 28.8677 31.4602 28.6635 31.7235C27.9865 32.5963 27.1046 33.5714 26 33.5714H14ZM20 23.8571C21.76 23.8571 23.2 25.4357 23.2 27.5C23.2 29.5643 21.76 31.1429 20 31.1429C18.24 31.1429 16.8 29.5643 16.8 27.5C16.8 25.4357 18.24 23.8571 20 23.8571Z" fill="white"/>
<path fill-rule="evenodd" clip-rule="evenodd" d="M12.8846 17.496C12.5677 17.8187 12.1379 18 11.6897 18C11.2416 18 10.8118 17.8187 10.4949 17.496C10.178 17.1734 10 16.7357 10 16.2794C10 15.823 10.178 15.3854 10.4949 15.0627L16.1237 9.33272L16.1355 9.32069C16.5954 8.86201 17.2135 8.60512 17.8573 8.60512C18.501 8.60512 19.1191 8.86201 19.579 9.32069L19.5908 9.33272L22.4635 12.2579L26.4272 7.98965L24.6708 6.20119C24.4939 6.02082 24.3734 5.79111 24.3246 5.54107C24.2759 5.29103 24.3009 5.03188 24.3967 4.79634C24.4925 4.56081 24.6547 4.35946 24.8628 4.21772C25.0708 4.07599 25.3155 4.00022 25.5659 4H31.7334C32.0693 4 32.3915 4.13588 32.629 4.37776C32.8666 4.61964 33 4.94769 33 5.28976V11.57C32.9998 11.8249 32.9254 12.0741 32.7862 12.286C32.647 12.4979 32.4493 12.663 32.218 12.7605C31.9866 12.8581 31.7321 12.8836 31.4866 12.8339C31.241 12.7843 31.0155 12.6616 30.8383 12.4815L28.8168 10.4213L24.2503 15.3413C24.0246 15.5784 23.7552 15.7678 23.4574 15.8986C23.1597 16.0293 22.8395 16.0989 22.5152 16.1032C22.191 16.1075 21.8691 16.0465 21.5681 15.9237C21.2671 15.8009 20.9928 15.6188 20.7612 15.3877L20.7494 15.3757L17.8564 12.4316L12.8846 17.496Z" fill="white"/>
</svg>
