<svg width="33" height="33" viewBox="0 0 33 33" fill="none" xmlns="http://www.w3.org/2000/svg">
<circle cx="26.2057" cy="5.82363" r="2.91176" fill="white"/>
<path fill-rule="evenodd" clip-rule="evenodd" d="M23.3946 3.14591C22.5053 3.09375 21.4313 3.09375 20.1204 3.09375H12.8796C11.3781 3.09375 10.1874 3.09375 9.229 3.17212C8.24725 3.25187 7.41812 3.41962 6.6605 3.80462C5.43123 4.43118 4.43196 5.43093 3.806 6.6605C3.41962 7.41675 3.25187 8.24725 3.17212 9.229C3.09375 10.1874 3.09375 11.3781 3.09375 12.8796V20.1204C3.09375 21.6219 3.09375 22.8126 3.17212 23.771C3.25187 24.7528 3.41962 25.5819 3.80462 26.3409C4.43141 27.5696 5.43114 28.5684 6.6605 29.194C7.41675 29.5804 8.24725 29.7481 9.229 29.8279C10.1874 29.9062 11.3781 29.9062 12.8795 29.9062H12.8796H20.1204H20.1205C21.6219 29.9062 22.8126 29.9062 23.771 29.8279C24.7528 29.7481 25.5819 29.5804 26.3409 29.1954C27.5694 28.5689 28.5682 27.5697 29.194 26.3409C29.5804 25.5819 29.7481 24.7528 29.8279 23.771C29.9062 22.8126 29.9062 21.6219 29.9062 20.1205V20.1204V12.8796V12.8795C29.9062 11.3781 29.9062 10.1874 29.8279 9.229C29.7837 8.68497 29.7125 8.1878 29.5922 7.7237C28.927 8.90671 27.6598 9.70588 26.2059 9.70588C24.0617 9.70588 22.3235 7.96769 22.3235 5.82353C22.3235 4.78543 22.731 3.8425 23.3946 3.14591ZM18.8224 12.6176C18.8224 12.0654 19.2701 11.6176 19.8224 11.6176H24.75C25.3023 11.6176 25.75 12.0654 25.75 12.6176V13.2326C25.75 13.2333 25.75 13.2339 25.75 13.2346V17.5452C25.75 18.0975 25.3023 18.5452 24.75 18.5452C24.1977 18.5452 23.75 18.0975 23.75 17.5452V15.6478L18.4969 20.9009L18.4898 20.908L18.4898 20.908C18.1877 21.2041 17.7816 21.3699 17.3586 21.3699C16.9356 21.3699 16.5295 21.2041 16.2274 20.908L16.2203 20.901L16.2203 20.9009L13.6629 18.3435L9.4424 22.564C9.05188 22.9545 8.41871 22.9545 8.02819 22.564C7.63766 22.1735 7.63766 21.5403 8.02819 21.1498L12.5246 16.6534L12.5317 16.6463L12.5317 16.6463C12.8338 16.3502 13.2399 16.1844 13.6629 16.1844C14.0859 16.1844 14.492 16.3502 14.7941 16.6463L14.8012 16.6533L14.8012 16.6534L17.3586 19.2108L22.9517 13.6176H19.8224C19.2701 13.6176 18.8224 13.1699 18.8224 12.6176Z" fill="white"/>
</svg>
