<svg width="99" height="33" viewBox="0 0 99 33" fill="none" xmlns="http://www.w3.org/2000/svg">
<g clip-path="url(#clip0_893_919)">
<mask id="mask0_893_919" style="mask-type:luminance" maskUnits="userSpaceOnUse" x="0" y="0" width="98" height="33">
<path d="M97.8197 0.641602H0.5V32.6416H97.8197V0.641602Z" fill="white"/>
</mask>
<g mask="url(#mask0_893_919)">
<path d="M22.5699 17.6973C22.8998 17.5323 23.2627 17.3344 23.5926 17.1694C23.7245 17.1035 24.1864 16.9385 24.2524 16.8065C24.2854 16.7406 24.2524 16.5426 24.2524 16.4437V15.6519V10.0107V4.50139V3.77562C24.2524 3.74263 24.2854 3.5117 24.2524 3.47871C24.2194 3.44572 23.9554 3.47871 23.9225 3.47871H23.1967C22.9328 3.47871 22.9658 3.5117 22.8008 3.70964C22.174 4.53438 21.5472 5.35911 20.9204 6.21684C20.6235 6.61275 20.3266 6.97563 20.0627 7.3715C19.8647 7.6354 19.8647 7.66839 19.5018 7.66839L19.6008 5.49108C19.6338 4.96324 19.6338 4.4354 19.6668 3.90756C19.6668 3.70964 19.6998 3.5117 19.6998 3.31376C19.6998 3.24778 19.6668 3.04985 19.6998 3.01685C19.7658 2.91789 20.3596 2.98387 20.5245 2.98387H32.8626C32.9286 2.98387 33.2255 2.95088 33.2914 2.98387C33.3574 3.01685 33.3244 3.21479 33.3244 3.31376C33.3574 3.74263 33.3574 4.20449 33.3906 4.63335C33.4236 5.59006 33.4566 6.51377 33.5225 7.47047V7.66839C33.3574 7.66839 33.2255 7.70139 33.0937 7.60241C32.9615 7.50347 32.8626 7.30551 32.7638 7.17355C32.3678 6.64574 31.972 6.08491 31.5431 5.55707L30.3554 3.97355C30.2895 3.8746 30.1905 3.64366 30.0585 3.57768C29.9596 3.5117 29.7617 3.54469 29.6297 3.54469H29.1018C29.0359 3.54469 28.772 3.5117 28.706 3.54469C28.673 3.57768 28.706 3.57768 28.673 3.64366C28.607 3.90759 28.673 4.23748 28.673 4.50139V15.9818C28.673 16.2127 28.607 16.5426 28.673 16.7735C28.739 17.0045 29.2668 17.1694 29.4977 17.2684C29.7287 17.4004 30.1245 17.4993 30.3225 17.6973C30.3884 17.7632 30.4544 18.0931 30.3884 18.1921C30.3554 18.2251 30.1905 18.1921 30.1575 18.1921H22.8998C22.8338 18.1921 22.6029 18.2251 22.5699 18.1921C22.5369 18.0602 22.5699 17.7962 22.5699 17.6973ZM34.8092 17.1035V12.287V4.40241V3.11582C34.8092 2.91789 34.8751 2.62098 34.8092 2.42304C34.743 2.19212 34.3471 2.15912 34.1164 2.06015C33.9842 2.02716 33.5554 1.9282 33.4895 1.79624V1.53232H33.5884C33.7206 1.46634 33.9842 1.46634 34.1494 1.43335C34.4463 1.36737 34.743 1.33438 35.007 1.2684C35.6668 1.13644 36.3596 1.00448 37.0194 0.905516C37.4153 0.839536 37.8111 0.740567 38.207 0.674588C38.3058 0.674588 38.702 0.608608 38.735 0.674588C38.7679 0.707578 38.735 0.839536 38.735 0.872526V7.70139C39.9884 6.44779 42.1657 5.75499 43.9142 6.18388C45.4316 6.54676 45.9266 7.96532 45.9266 9.41684C45.9596 11.2643 45.9266 13.0787 45.9266 14.9261V16.4107C45.9266 16.5756 45.8607 16.9715 45.9266 17.1365C45.9596 17.2024 46.0914 17.2354 46.1574 17.3014C46.3884 17.4334 46.6524 17.5653 46.8834 17.6973C46.9164 17.7302 47.0153 17.7632 47.0153 17.7962C47.0482 17.8292 47.0482 18.1261 47.0153 18.1591C46.9823 18.2251 46.9823 18.1921 46.8834 18.1921C46.5206 18.2581 46.1244 18.1921 45.7945 18.1921H41.0441C41.0111 18.1921 40.8463 18.2251 40.813 18.1921C40.7801 18.1591 40.7801 17.7962 40.813 17.7632C40.9122 17.6313 41.3081 17.4993 41.4399 17.4004C41.5388 17.3344 41.8358 17.2354 41.902 17.1365C41.9679 17.0375 41.902 16.6746 41.902 16.5756V15.223C41.902 13.3096 41.935 11.3632 41.902 9.44983C41.902 8.88903 41.8028 8.22923 41.2422 7.93233C40.9452 7.76737 40.5494 7.73438 40.2194 7.73438C39.9554 7.73438 39.6914 7.80036 39.4607 7.86635C39.2626 7.93233 38.8998 8.06427 38.7679 8.22923C38.6687 8.36119 38.735 8.55911 38.735 8.72407V16.5096C38.735 16.6746 38.6687 17.0045 38.735 17.1365C38.7679 17.2024 38.8998 17.2684 38.9986 17.3014C39.2297 17.4334 39.5266 17.5653 39.7574 17.6973C39.7906 17.7302 39.8566 17.7302 39.8566 17.7632C39.8895 17.7962 39.8895 18.0931 39.8566 18.1261C39.8236 18.1591 39.7906 18.1591 39.7244 18.1591C39.3615 18.1921 38.9657 18.1591 38.6028 18.1591H33.8524C33.8194 18.1591 33.6543 18.1921 33.6214 18.1591C33.5884 18.1261 33.6214 17.7962 33.6543 17.7302C33.7535 17.5983 34.1164 17.4663 34.2482 17.4004C34.4793 17.3014 34.6441 17.2024 34.8092 17.1035ZM50.4793 12.5509C50.5452 14.0024 51.007 15.6189 52.3266 16.4107C53.0194 16.8065 53.877 16.9385 54.6687 16.8725C55.6255 16.7735 56.4172 16.3117 57.2422 15.8828C57.2422 16.0148 57.2751 16.2457 57.2422 16.3777C57.1759 16.5096 57.0111 16.6746 56.9122 16.7735C56.7801 16.9055 56.6153 17.0705 56.4502 17.2024C55.8895 17.6643 55.2626 17.9942 54.6028 18.2251C53.3494 18.654 51.8978 18.621 50.6111 18.2911C49.5884 18.0272 48.6649 17.5323 47.9721 16.7406C47.2793 15.9488 46.8834 14.9261 46.7183 13.8705C46.3554 11.5942 46.7842 8.98798 48.6649 7.47047C50.3142 6.15089 52.9535 5.88695 54.8998 6.6787C57.2751 7.6354 57.671 10.3406 57.671 12.5839H51.3698C51.0729 12.5509 50.7759 12.5509 50.4793 12.5509ZM50.413 11.9901C51.0729 11.9571 51.7327 11.9241 52.4255 11.8581C52.8214 11.8251 53.2502 11.8251 53.6463 11.7921C53.7122 11.7921 53.877 11.7921 53.943 11.7591C54.0422 11.6931 53.9759 11.0334 53.9759 10.9014C53.943 9.71377 53.91 8.26222 53.2172 7.23953C52.7225 6.51377 51.9638 6.64574 51.502 7.30551C50.5452 8.59211 50.413 10.5055 50.413 11.9901ZM0.466797 24.0313C0.466797 22.1839 0.829682 20.2705 1.85236 18.7199C2.84205 17.2024 4.42556 16.2127 6.14101 15.7179C8.21938 15.1241 10.5287 15.1901 12.673 15.5859C13.1348 15.6849 13.5967 15.7839 14.0256 15.9158C14.0915 15.9488 14.3884 16.0148 14.4214 16.0808V16.1798C14.5204 16.5756 14.4544 17.0705 14.4544 17.4663C14.4874 18.489 14.4874 19.5447 14.5204 20.5674C14.3884 20.5674 14.1575 20.6004 14.0585 20.5674C13.9926 20.5344 13.9266 20.3694 13.8936 20.3035C13.6297 19.9076 13.3658 19.5117 13.1348 19.0828C12.574 18.1921 11.9802 17.3014 11.4194 16.4107C11.1225 15.9158 10.2977 15.9158 9.76988 15.9158C9.17609 15.9158 8.58226 16.0148 8.08741 16.3117C6.96578 17.0045 6.43794 18.3571 6.14101 19.5777C5.67916 21.5241 5.71215 23.5694 5.81113 25.5488C5.9101 27.0663 6.04207 28.6828 6.63586 30.0684C6.99874 30.9261 7.62556 31.6849 8.58226 31.8828C8.87916 31.9488 9.17609 31.9488 9.50597 31.9158C9.70393 31.8828 10.3967 31.8498 10.4957 31.6519C10.5287 31.5859 10.4957 31.421 10.4957 31.355V30.7942V27.2973V25.9447C10.4957 25.7138 10.5617 25.6148 10.3637 25.4828C10.1328 25.3509 9.86885 25.2189 9.63794 25.054C9.47298 24.955 9.14309 24.856 9.04412 24.7241C8.97813 24.6581 8.94514 24.2952 9.01113 24.2292C9.04412 24.1632 9.04412 24.1962 9.14309 24.1962C9.43999 24.1302 9.83586 24.1962 10.1328 24.1962H15.2462C15.5761 24.1962 15.939 24.1632 16.2689 24.1962H16.4008C16.4338 24.2292 16.4338 24.6911 16.4008 24.7571C16.3348 24.856 16.0049 24.988 15.873 25.054C15.6421 25.1859 15.3781 25.3179 15.1472 25.4828C14.8833 25.6148 14.9163 25.6148 14.9163 25.9117V31.289C14.9163 31.355 14.9493 31.5199 14.9163 31.5859C14.8503 31.7509 14.1575 31.8498 13.9596 31.9158C13.3987 32.0808 12.8049 32.2127 12.2111 32.3117C11.0565 32.5096 9.90185 32.5756 8.74722 32.5426C6.8998 32.4767 4.9534 32.0808 3.43587 30.9591C2.11628 30.0024 1.25855 28.5509 0.862674 26.9674C0.565766 26.0437 0.466797 25.021 0.466797 24.0313ZM15.675 21.0292C15.675 20.9632 15.6421 20.6993 15.675 20.6663C15.708 20.6334 15.741 20.6663 15.774 20.6334C15.972 20.5344 16.2359 20.5344 16.4668 20.5014C17.2256 20.3694 17.9843 20.2375 18.7761 20.1055C19.3699 20.0065 19.9637 19.8746 20.5245 19.8086C20.6895 19.7756 20.8874 19.7756 21.0524 19.8416C21.2173 19.8746 21.1513 19.8416 21.1843 19.9735C21.2503 20.3694 21.1843 20.8313 21.1843 21.2272V28.122C21.1843 28.9468 20.9534 30.4643 21.7451 30.9591C22.141 31.223 22.7018 31.223 23.1637 31.1241C23.5266 31.0581 24.2194 30.7942 24.3513 30.3983C24.3843 30.2993 24.3513 30.1674 24.3513 30.0684V29.3756V24.7901V22.6787V21.9859C24.3513 21.9199 24.3843 21.722 24.3513 21.656C24.2524 21.5571 23.9225 21.4581 23.8235 21.4251C23.6256 21.3591 23.4606 21.2602 23.2627 21.1942C23.1967 21.1612 22.9658 21.1282 22.9328 21.0622C22.8998 21.0292 22.8998 20.7323 22.9328 20.6993C22.9658 20.6663 22.9658 20.6993 22.9987 20.6663C23.1637 20.5674 23.4606 20.6004 23.6256 20.5674C24.9781 20.3365 26.3637 20.0395 27.7493 19.8416C27.9142 19.8086 28.0792 19.8086 28.2441 19.8416C28.4091 19.8746 28.3431 19.8086 28.3761 19.9735C28.4421 20.3035 28.3761 20.7653 28.3761 21.1282V30.6292C28.3761 30.7282 28.3431 30.8932 28.3761 31.0251C28.4091 31.1241 28.3761 31.0911 28.541 31.1571C28.8709 31.289 29.2338 31.454 29.5637 31.5859C29.6627 31.6189 29.6957 31.6189 29.7287 31.6849C29.7617 31.7509 29.7617 31.9818 29.7287 31.9818C29.6627 32.0478 29.3328 32.0148 29.2668 32.0478C28.541 32.1468 27.8153 32.2127 27.0565 32.3117C26.3967 32.3777 25.7369 32.4767 25.1101 32.5426C24.9781 32.5756 24.8462 32.5756 24.7142 32.5426C24.6482 32.5426 24.4503 32.5426 24.4173 32.5096C24.3843 32.4437 24.4173 32.1798 24.4173 32.1138V31.5529C24.4173 31.454 24.4833 31.1901 24.4173 31.0911C24.3513 30.9921 24.2194 31.1241 24.1204 31.1901C23.8565 31.421 23.5596 31.6519 23.2627 31.8169C22.174 32.4766 20.8214 32.7737 19.5678 32.5096C18.6441 32.3117 17.8524 31.7839 17.4565 30.8932C17.1596 30.2663 17.0936 29.5735 17.0936 28.9138V24.988V22.7447V21.9859C17.0936 21.9199 17.1266 21.722 17.0936 21.656C17.0276 21.5571 16.6317 21.4581 16.5328 21.3921C16.2029 21.2602 15.939 21.1612 15.675 21.0292ZM46.7842 19.7756C46.8502 19.7756 47.1471 19.7756 47.1801 19.8416C47.213 19.8746 47.1801 20.1055 47.1801 20.1385V23.0416C47.1801 23.1406 47.1471 23.3055 47.1801 23.4045V23.4705C47.3122 23.6024 47.3452 23.1735 47.3782 23.1406C47.6751 21.9199 48.2358 20.5014 49.4895 20.0065C49.7206 19.9076 49.9513 19.8746 50.1823 19.8416C50.3801 19.8416 50.941 19.7756 51.0399 19.9406C51.0729 20.0065 51.0399 20.1715 51.0399 20.2375V23.6024C50.2482 23.4375 49.3574 23.4705 48.5986 23.6354C48.2358 23.7014 47.9058 23.8004 47.5759 23.9653C47.4111 24.0313 47.3782 23.9983 47.3452 24.1302C47.3122 24.2622 47.3452 24.4932 47.3452 24.6251V30.9921C47.3452 31.0581 47.3122 31.1571 47.3452 31.223C47.4111 31.322 47.6422 31.388 47.741 31.421C47.9058 31.5199 48.1039 31.6189 48.2687 31.7179C48.335 31.7509 48.4338 31.7839 48.4668 31.8498C48.4998 31.8828 48.4998 32.2787 48.4668 32.3117C48.4338 32.3447 48.2358 32.3117 48.1698 32.3117H42.6937C42.5286 32.3117 42.2316 32.3777 42.0998 32.3117H42.0009C41.9679 32.2787 42.0009 31.9158 42.0009 31.8828C42.0668 31.6849 42.4956 31.5529 42.6937 31.454C42.8255 31.388 43.0895 31.289 43.1554 31.1571C43.1884 31.0911 43.1554 30.8932 43.1554 30.8272V30.1344V21.656C43.1554 21.6231 43.1884 21.4581 43.1554 21.4251C43.1225 21.3921 42.9574 21.3591 42.8914 21.3591C42.6937 21.2931 42.4956 21.2272 42.2978 21.1942C42.0998 21.1282 41.605 21.0952 41.7698 20.7653C41.8028 20.6663 41.935 20.6993 42.0668 20.6663C43.5183 20.4024 44.9369 20.1385 46.3884 19.8746C46.5206 19.8086 46.6524 19.8086 46.7842 19.7756ZM59.2214 20.0725V17.4334V16.6746C59.2214 16.5756 59.2543 16.3777 59.2214 16.2787C59.1884 16.2127 59.0566 16.1798 58.9574 16.1468C58.6937 16.0478 58.4297 15.9488 58.1327 15.8498C57.935 15.7839 57.8358 15.8168 57.8358 15.5859C57.8358 15.388 57.8028 15.454 57.9679 15.421C58.3308 15.289 58.7596 15.289 59.1225 15.223C60.2111 15.0251 61.2668 14.8272 62.3554 14.6292C62.5865 14.5962 62.8172 14.5302 63.0482 14.5632C63.3122 14.5962 63.3452 14.5302 63.3452 14.7612C63.3782 15.289 63.3452 15.8498 63.3452 16.3777V30.8272C63.3452 30.9591 63.3122 30.9591 63.4111 31.0251C63.6092 31.1571 63.9388 31.223 64.1369 31.289C64.2687 31.322 64.6316 31.388 64.6978 31.487C64.7308 31.5199 64.7308 31.8828 64.6978 31.9158C64.6649 31.9488 64.4668 31.9488 64.4338 31.9488C63.9721 32.0148 63.543 32.0808 63.0812 32.1138C62.0585 32.2457 61.0358 32.3777 59.9801 32.5096C59.8153 32.5426 59.4194 32.6086 59.3535 32.4767C59.2873 32.3447 59.3535 31.9158 59.3535 31.7839C59.3535 31.6849 59.4194 31.256 59.3535 31.1901C59.2873 31.1241 58.5615 31.7839 58.4626 31.8498C58.0668 32.1138 57.638 32.3117 57.1759 32.4437C56.4502 32.6415 55.6255 32.6415 54.8998 32.4767C51.7327 31.7509 51.0729 27.9901 51.3369 25.2519C51.4687 23.8004 51.9308 22.3488 52.9206 21.2931C53.8441 20.3365 55.0978 19.8416 56.3842 19.7426C57.374 19.6437 58.3308 19.7096 59.2214 20.0725ZM59.2214 30.5962V22.4808V20.9632C59.2214 20.7653 59.1884 20.7323 58.9574 20.6004C58.4956 20.3365 57.902 20.2375 57.407 20.4354C56.6482 20.7323 56.2854 21.623 56.0873 22.3488C55.6914 23.6684 55.6585 25.087 55.6914 26.4725C55.7244 27.6602 55.7574 29.1117 56.4172 30.1674C57.0111 31.0911 58.3638 31.322 59.2214 30.5962ZM70.141 19.7756C70.3058 19.8086 70.5039 19.7426 70.5698 19.9076C70.6028 20.0065 70.5698 20.2375 70.5698 20.3365V30.6622C70.5698 30.7942 70.5369 30.9921 70.5698 31.1241C70.6028 31.256 70.735 31.289 70.8668 31.355C71.0649 31.454 71.2297 31.5529 71.4278 31.6519C71.4937 31.6849 71.6914 31.7509 71.7244 31.8498C71.7244 31.8828 71.7574 32.2787 71.7244 32.3117H71.6255C71.4278 32.3447 71.1638 32.3117 70.9327 32.3117H65.9183C65.7865 32.3117 65.4236 32.3777 65.3244 32.3117C65.2585 32.2787 65.2255 31.8828 65.2914 31.8169C65.3574 31.7179 65.5884 31.6519 65.6873 31.6189C65.8854 31.5199 66.0834 31.388 66.2812 31.289C66.4463 31.1901 66.413 31.223 66.413 31.0911C66.4793 30.5962 66.413 30.0354 66.413 29.5406V26.9344V22.1839C66.413 22.0519 66.4463 21.821 66.413 21.689C66.3801 21.5571 66.2153 21.5571 66.0834 21.4911C65.8524 21.3921 65.6543 21.3261 65.4236 21.2272C65.3574 21.1942 65.0937 21.1612 65.0278 21.0622C64.9945 21.0292 64.9945 20.6993 65.0278 20.6663C65.0607 20.6334 65.1266 20.6663 65.1596 20.6334C65.4236 20.5344 65.7206 20.5344 66.0172 20.4684C66.4463 20.4024 66.8422 20.3035 67.271 20.2375C68.0956 20.1055 68.8873 19.9406 69.7122 19.8086C69.877 19.8416 70.0092 19.8086 70.141 19.7756ZM70.6028 16.7076C70.5369 18.687 67.8649 19.5447 66.6441 17.9942C66.0834 17.2684 66.0502 16.2787 66.5452 15.5199C67.0399 14.7612 67.9967 14.4313 68.8873 14.6292C69.877 14.8272 70.6028 15.6849 70.6028 16.7076ZM85.0524 31.1901V23.2395V21.722C85.0524 21.689 85.0854 21.5241 85.0524 21.4911C85.0194 21.4251 84.8214 21.3921 84.7554 21.3921L84.1615 21.1942C84.0626 21.1612 83.7986 21.1282 83.7327 21.0292C83.6668 20.9632 83.6998 20.7983 83.6998 20.6993C83.6998 20.5014 83.7657 20.5344 83.9638 20.5014L86.141 20.1055L88.3183 19.7096C88.4502 19.6766 88.5494 19.6437 88.6812 19.6437C88.7471 19.6437 89.077 19.6437 89.143 19.6766C89.1762 19.7096 89.143 19.9076 89.143 19.9735V20.6004C89.143 20.6993 89.077 20.9962 89.143 21.0952C89.2092 21.2272 89.341 21.0952 89.4399 20.9962C89.7369 20.7653 90.0338 20.5674 90.3638 20.4024C91.5513 19.7426 92.9698 19.4457 94.3225 19.6437C95.2463 19.7756 96.005 20.2705 96.335 21.1612C96.5657 21.788 96.5986 22.4478 96.5986 23.1076V30.6292C96.5986 30.7612 96.5657 30.9921 96.5986 31.1241C96.6316 31.256 96.7308 31.289 96.8956 31.355C97.0607 31.454 97.2585 31.5529 97.4236 31.6519C97.4895 31.6849 97.7206 31.7509 97.7535 31.8498C97.7865 31.9158 97.7865 32.2457 97.7535 32.2787C97.7206 32.3447 97.7865 32.2787 97.6873 32.3117C97.5554 32.3777 97.2585 32.3117 97.0937 32.3117H92.3759C92.1782 32.3117 91.4194 32.4107 91.3206 32.2787C91.2873 32.2457 91.2873 31.8828 91.3206 31.8169C91.3535 31.7509 91.5513 31.6849 91.6172 31.6519C91.8153 31.5529 91.9801 31.454 92.1782 31.355C92.2441 31.322 92.4422 31.256 92.4751 31.1901C92.5081 31.1241 92.4751 30.9921 92.4751 30.9262V30.2004V27.8911V23.4375C92.4751 22.9096 92.5081 22.3158 92.1782 21.854C91.9142 21.4581 91.4524 21.3591 90.9906 21.3261C90.6278 21.3261 90.2978 21.3591 89.9679 21.4581C89.8028 21.5241 89.3081 21.656 89.2092 21.854C89.1759 21.9199 89.2092 22.0519 89.2092 22.1179V30.6622C89.2092 30.7612 89.1759 30.9921 89.2092 31.0911C89.2422 31.223 89.4399 31.256 89.5391 31.322C89.7039 31.421 89.902 31.5199 90.0668 31.6189C90.1327 31.6519 90.2649 31.7179 90.2978 31.7509C90.3308 31.7839 90.3308 32.1798 90.2978 32.2127C90.2978 32.2457 90.2649 32.2127 90.2316 32.2127C90.0998 32.2787 89.7698 32.2127 89.638 32.2127H84.0956C83.9308 32.2127 83.8978 32.2457 83.8649 32.1468C83.8316 32.0808 83.8316 31.7839 83.8649 31.7179C83.8978 31.6519 84.0956 31.5859 84.1615 31.5529C84.4914 31.5199 84.7554 31.355 85.0524 31.1901ZM78.0585 25.1199C78.0585 24.2622 78.0914 23.3715 78.0255 22.4808C77.9266 21.5241 77.6626 20.4684 76.574 20.2705C76.2441 20.2045 75.6502 20.1055 75.4194 20.3694C75.1884 20.6004 75.0236 20.9302 74.8255 21.1942L73.143 23.4705C73.0441 23.6024 72.9452 23.8663 72.813 23.9323C72.7801 23.9653 72.4502 23.9653 72.4502 23.9323C72.4172 23.8993 72.4502 23.6684 72.4502 23.6024V20.9303C72.4502 20.8313 72.4172 20.6663 72.4502 20.5674C72.5164 20.4024 73.2422 20.3035 73.407 20.2375C74.3308 20.0065 75.2873 19.8416 76.2441 19.7756C77.5967 19.6766 79.1142 19.7096 80.3679 20.3035C81.3577 20.7653 81.9842 21.5901 82.1494 22.6457C82.2482 23.1735 82.2153 23.7674 82.2153 24.2952V30.8932C82.2153 30.9921 82.1494 31.256 82.2153 31.322C82.2482 31.355 82.413 31.388 82.4463 31.388C82.71 31.454 82.941 31.5199 83.205 31.5859C83.3699 31.6189 83.4028 31.6189 83.4028 31.7839C83.4028 31.9488 83.4358 31.9488 83.238 32.0148C83.007 32.1138 82.7759 32.2127 82.5452 32.2787C81.3244 32.6415 79.4111 32.7407 78.5206 31.6189C78.4543 31.5199 78.2566 31.0911 78.1574 31.0581C78.0255 31.0251 77.6297 31.5529 77.4978 31.6519C76.9698 32.1138 76.277 32.3777 75.5842 32.4767C74.2978 32.6415 72.9122 32.3777 72.1206 31.256C71.4607 30.2993 71.3286 28.8148 71.8236 27.7591C72.7142 25.7468 75.3535 25.5488 77.2668 25.2189C77.4978 25.2189 77.7615 25.1529 78.0585 25.1199ZM78.0585 30.5962V25.7138C77.0687 25.7798 76.0463 25.8457 75.6834 26.9344C75.4194 27.6602 75.4194 28.5179 75.5183 29.2766C75.5842 29.8045 75.7164 30.4643 76.2111 30.7942C76.7391 31.1571 77.6297 31.0911 78.0585 30.5962ZM36.2937 25.1199C36.2937 24.2622 36.3266 23.3715 36.2607 22.4808C36.1615 21.5241 35.8978 20.4684 34.8092 20.2705C34.4793 20.2045 33.8854 20.1055 33.6543 20.3694C33.4236 20.6004 33.2585 20.9302 33.0607 21.1942L31.3781 23.4705C31.2792 23.6024 31.1802 23.8663 31.0482 23.9323C31.0153 23.9653 30.6854 23.9653 30.6854 23.9323C30.6524 23.8993 30.6854 23.6684 30.6854 23.6024V20.9632C30.6854 20.8643 30.6524 20.6993 30.6854 20.6004C30.7514 20.4354 31.4441 20.3365 31.6421 20.2705C32.5657 20.0395 33.5225 19.8746 34.4463 19.8086C35.7986 19.7096 37.3164 19.7426 38.5698 20.3365C39.5596 20.7983 40.1865 21.6231 40.3513 22.6787C40.4502 23.2065 40.4172 23.8004 40.4172 24.3282V30.9262C40.4172 31.0251 40.3513 31.289 40.4172 31.355C40.4502 31.388 40.6153 31.421 40.6482 31.421C40.9122 31.487 41.143 31.5529 41.407 31.6189C41.5721 31.6519 41.605 31.6519 41.605 31.8169C41.605 31.9818 41.638 31.9818 41.4399 32.0478C41.2092 32.1468 40.9782 32.2457 40.7471 32.3117C39.5266 32.6745 37.613 32.7737 36.7225 31.6519C36.6566 31.5529 36.4585 31.1241 36.3596 31.0911C36.2278 31.0581 35.8316 31.5859 35.7327 31.6849C35.205 32.1468 34.5122 32.4107 33.8194 32.5096C32.5327 32.6745 31.1472 32.4107 30.3554 31.289C29.6957 30.3323 29.5637 28.8478 30.0585 27.7921C30.9493 25.7798 33.5884 25.5818 35.4687 25.2519C35.7327 25.2189 35.9967 25.1529 36.2937 25.1199ZM36.2937 30.5962V25.7138C35.3039 25.7798 34.2812 25.8457 33.9183 26.9344C33.6543 27.6602 33.6543 28.5179 33.7535 29.2766C33.8194 29.8045 33.9513 30.4643 34.4463 30.7942C34.974 31.1571 35.8649 31.0911 36.2937 30.5962Z" fill="white"/>
</g>
</g>
<defs>
<clipPath id="clip0_893_919">
<rect width="97.6" height="32" fill="white" transform="translate(0.5 0.641602)"/>
</clipPath>
</defs>
</svg>
