<svg width="27" height="30" viewBox="0 0 27 30" fill="none" xmlns="http://www.w3.org/2000/svg">
<path fill-rule="evenodd" clip-rule="evenodd" d="M13.739 0.026288C13.582 -0.0123435 13.418 -0.0123433 13.261 0.0262881L9.81761 0.873723C8.6704 1.15605 8.87514 2.84475 10.0566 2.84475H16.9434C18.1249 2.84475 18.3296 1.15605 17.1824 0.873723L13.739 0.026288ZM0 10.8039C0 6.93791 3.13401 3.8039 7 3.8039H20C23.866 3.8039 27 6.93791 27 10.8039V12.8701C25.9922 12.0017 24.6802 11.4768 23.2456 11.4768H22.7547C19.5765 11.4768 17.0001 14.0532 17.0001 17.2313C17.0001 20.4094 19.5765 22.9858 22.7547 22.9858H23.2456C24.6802 22.9858 25.9922 22.4609 27 21.5925V22.6994C27 26.5653 23.866 29.6994 20 29.6994H7C3.13401 29.6994 0 26.5653 0 22.6994V10.8039ZM23.2456 12.9768C24.8711 12.9768 26.2836 13.8883 27 15.2281V19.2345C26.2836 20.5743 24.8711 21.4858 23.2456 21.4858H22.7547C20.405 21.4858 18.5001 19.581 18.5001 17.2313C18.5001 14.8816 20.405 12.9768 22.7547 12.9768H23.2456ZM21.9999 18.1903C22.5521 18.1903 22.9999 17.7609 22.9999 17.2313C22.9999 16.7016 22.5521 16.2722 21.9999 16.2722C21.4476 16.2722 20.9999 16.7016 20.9999 17.2313C20.9999 17.7609 21.4476 18.1903 21.9999 18.1903ZM4.00046 10.5175C4.00046 9.96524 4.44818 9.51752 5.00046 9.51752H11.5005C12.0527 9.51752 12.5005 9.96524 12.5005 10.5175C12.5005 11.0698 12.0527 11.5175 11.5005 11.5175H5.00046C4.44818 11.5175 4.00046 11.0698 4.00046 10.5175Z" fill="white"/>
</svg>
