<svg width="32" height="32" viewBox="0 0 32 32" fill="none" xmlns="http://www.w3.org/2000/svg">
<path d="M20.9999 16C19.7149 16 18.4724 15.4263 17.4999 14.385C16.5543 13.3694 15.9768 12.015 15.8749 10.5725C15.7662 9.03375 16.2356 7.61875 17.1962 6.5875C18.1568 5.55625 19.4999 5 20.9999 5C22.4893 5 23.8362 5.56625 24.7937 6.595C25.7606 7.63375 26.2312 9.04625 26.1224 10.5719C26.0181 12.0162 25.4412 13.37 24.4974 14.3844C23.5274 15.4262 22.2856 16 20.9999 16ZM29.2393 27H12.7612C12.4962 27.0014 12.2345 26.942 11.9961 26.8264C11.7578 26.7108 11.5491 26.542 11.3862 26.3331C11.2134 26.1066 11.094 25.844 11.0371 25.5649C10.9802 25.2857 10.9871 24.9973 11.0574 24.7213C11.5837 22.6081 12.8874 20.8556 14.8274 19.6537C16.5493 18.5875 18.7412 18 20.9999 18C23.3031 18 25.4374 18.5625 27.1693 19.6281C29.1137 20.8237 30.4193 22.5863 30.9431 24.725C31.0125 25.0013 31.0187 25.2897 30.9611 25.5687C30.9035 25.8477 30.7837 26.11 30.6106 26.3363C30.4478 26.5442 30.2396 26.7121 30.0019 26.8272C29.7642 26.9422 29.5034 27.0014 29.2393 27ZM9.18743 16.25C6.98805 16.25 5.0543 14.205 4.87493 11.6919C4.78618 10.4044 5.18743 9.21375 5.99993 8.34062C6.80368 7.47625 7.93743 7 9.18743 7C10.4374 7 11.5624 7.47875 12.3706 8.34813C13.1893 9.22813 13.5893 10.4162 13.4956 11.6931C13.3162 14.2056 11.3831 16.25 9.18743 16.25ZM13.2912 18.2156C12.1918 17.6781 10.7649 17.4094 9.18805 17.4094C7.3468 17.4094 5.55868 17.8894 4.15243 18.7606C2.55805 19.75 1.48555 21.1906 1.05243 22.93C0.989045 23.1802 0.98305 23.4415 1.03489 23.6943C1.08673 23.9471 1.19507 24.1849 1.3518 24.39C1.50052 24.5809 1.69104 24.7352 1.90872 24.8409C2.1264 24.9467 2.36543 25.0011 2.60743 25H9.54493C9.66202 25 9.7754 24.9589 9.86528 24.8838C9.95517 24.8088 10.0159 24.7046 10.0368 24.5894C10.0437 24.55 10.0524 24.5106 10.0624 24.4719C10.5924 22.3431 11.8343 20.5444 13.6693 19.2331C13.7368 19.1845 13.7911 19.1198 13.8272 19.0448C13.8634 18.9699 13.8803 18.8871 13.8764 18.804C13.8725 18.7209 13.8479 18.6401 13.8048 18.5689C13.7618 18.4977 13.7017 18.4383 13.6299 18.3962C13.5318 18.3387 13.4193 18.2781 13.2912 18.2156Z" fill="white"/>
</svg>
